<svg width="544" height="240" viewBox="0 0 544 240" fill="none" xmlns="http://www.w3.org/2000/svg">
<path d="M518.784 35L519.784 35L519.784 34L518.784 34L518.784 35ZM518.784 102.2L517.784 102.2L517.784 103.2L518.784 103.2L518.784 102.2ZM542.08 102.2L543.08 102.2L543.08 101.2L542.08 101.2L542.08 102.2ZM542.08 119.48L542.08 120.48L543.08 120.48L543.08 119.48L542.08 119.48ZM474.624 119.48L473.624 119.48L473.624 120.48L474.624 120.48L474.624 119.48ZM474.624 102.2L474.624 101.2L473.624 101.2L473.624 102.2L474.624 102.2ZM498.048 102.2L498.048 103.2L499.048 103.2L499.048 102.2L498.048 102.2ZM498.048 35L498.048 34L497.048 34L497.048 35L498.048 35ZM517.784 35L517.784 102.2L519.784 102.2L519.784 35L517.784 35ZM518.784 103.2L542.08 103.2L542.08 101.2L518.784 101.2L518.784 103.2ZM541.08 102.2L541.08 119.48L543.08 119.48L543.08 102.2L541.08 102.2ZM542.08 118.48L474.624 118.48L474.624 120.48L542.08 120.48L542.08 118.48ZM475.624 119.48L475.624 102.2L473.624 102.2L473.624 119.48L475.624 119.48ZM474.624 103.2L498.048 103.2L498.048 101.2L474.624 101.2L474.624 103.2ZM499.048 102.2L499.048 35L497.048 35L497.048 102.2L499.048 102.2ZM498.048 36L518.784 36L518.784 34L498.048 34L498.048 36ZM468.091 35L469.091 35L469.091 34L468.091 34L468.091 35ZM468.091 102.584L468.091 103.584L469.091 103.584L469.091 102.584L468.091 102.584ZM450.939 102.584L449.939 102.594L449.949 103.584L450.939 103.584L450.939 102.584ZM450.683 78.264L451.683 78.2534L451.673 77.264L450.683 77.264L450.683 78.264ZM448.635 78.264L448.635 77.264L447.718 77.264L447.639 78.177L448.635 78.264ZM421.755 102.84L420.756 102.806L420.73 103.541L421.425 103.784L421.755 102.84ZM422.523 80.568L422.956 79.6664L421.576 79.0043L421.524 80.5335L422.523 80.568ZM447.355 64.312L448.353 64.3743L448.355 64.3432L448.355 64.312L447.355 64.312ZM447.355 35L447.355 34L446.355 34L446.355 35L447.355 35ZM467.091 35L467.091 102.584L469.091 102.584L469.091 35L467.091 35ZM468.091 101.584L450.939 101.584L450.939 103.584L468.091 103.584L468.091 101.584ZM451.939 102.573L451.683 78.2534L449.683 78.2745L449.939 102.594L451.939 102.573ZM450.683 77.264L448.635 77.264L448.635 79.264L450.683 79.264L450.683 77.264ZM447.639 78.177C446.812 87.6495 444.82 93.8685 441.699 97.7137C438.63 101.494 434.35 103.12 428.539 103.12L428.539 105.12C434.76 105.12 439.696 103.354 443.251 98.9742C446.754 94.6594 448.794 87.9504 449.631 78.3509L447.639 78.177ZM428.539 103.12C426.623 103.12 424.56 102.762 422.085 101.896L421.425 103.784C424.07 104.71 426.359 105.12 428.539 105.12L428.539 103.12ZM422.754 102.874L423.522 80.6024L421.524 80.5335L420.756 102.806L422.754 102.874ZM422.09 81.4695C425.434 83.0745 429.039 83.744 431.867 83.744L431.867 81.744C429.319 81.744 426.012 81.1334 422.956 79.6664L422.09 81.4695ZM431.867 83.744C436.838 83.744 440.822 82.1198 443.639 78.7808C446.425 75.4796 447.962 70.628 448.353 64.3743L446.357 64.2496C445.98 70.2839 444.509 74.6483 442.111 77.4911C439.744 80.2961 436.368 81.744 431.867 81.744L431.867 83.744ZM448.355 64.312L448.355 35L446.355 35L446.355 64.312L448.355 64.312ZM447.355 36L468.091 36L468.091 34L447.355 34L447.355 36ZM386.562 74.168L386.409 73.1797L386.404 73.1805L386.562 74.168ZM397.186 77.24L397.399 76.263L396.353 76.0346L396.197 77.094L397.186 77.24ZM415.362 81.208L416.35 81.3651L416.498 80.4324L415.575 80.231L415.362 81.208ZM352.514 35L352.514 34L351.44 34L351.517 35.0712L352.514 35ZM370.562 35L371.556 34.8925L371.46 34L370.562 34L370.562 35ZM371.714 51.896L370.715 51.9367L370.754 52.896L371.714 52.896L371.714 51.896ZM373.634 51.896L373.634 52.896L374.41 52.896L374.603 52.144L373.634 51.896ZM373.506 61.496L372.524 61.3051L372.504 61.4112L372.506 61.5192L373.506 61.496ZM373.634 67L372.634 67.0232L372.67 68.5387L374.049 67.9099L373.634 67ZM397.826 34.208C403.215 34.208 407.886 35.7251 411.196 38.6458C414.488 41.5505 416.538 45.934 416.538 51.896L418.538 51.896C418.538 45.4419 416.3 40.4814 412.52 37.1461C408.758 33.8269 403.573 32.208 397.826 32.208L397.826 34.208ZM416.538 51.896C416.538 56.2596 415.428 59.5998 413.622 62.2043C411.81 64.818 409.253 66.7556 406.263 68.2312C400.241 71.2038 392.675 72.2107 386.409 73.1797L386.715 75.1562C392.865 74.2052 400.787 73.1642 407.149 70.0247C410.351 68.4443 413.21 66.3099 415.266 63.3437C417.328 60.3682 418.538 56.6203 418.538 51.896L416.538 51.896ZM386.404 73.1805C381.658 73.9398 378.296 74.5329 376.141 75.5328C375.03 76.0486 374.152 76.7087 373.568 77.6275C372.984 78.5459 372.762 79.6155 372.762 80.824L374.762 80.824C374.762 79.8564 374.94 79.198 375.256 78.7004C375.572 78.2032 376.095 77.7593 376.983 77.3471C378.828 76.491 381.866 75.9321 386.72 75.1554L386.404 73.1805ZM372.762 80.824C372.762 83.3291 373.703 85.5428 375.586 87.1122C377.449 88.665 380.134 89.504 383.49 89.504L383.49 87.504C380.446 87.504 378.267 86.7429 376.866 85.5757C375.485 84.4251 374.762 82.7988 374.762 80.824L372.762 80.824ZM383.49 89.504C386.984 89.504 390.345 88.5971 393.003 86.5993C395.678 84.5889 397.564 81.5296 398.175 77.3859L396.197 77.094C395.656 80.7584 394.022 83.331 391.801 85.0006C389.563 86.6828 386.652 87.504 383.49 87.504L383.49 89.504ZM396.973 78.2169L415.149 82.1849L415.575 80.231L397.399 76.263L396.973 78.2169ZM414.374 81.0508C413.074 89.2242 409.104 94.7632 403.592 98.2853C398.045 101.829 390.861 103.376 383.106 103.376L383.106 105.376C391.095 105.376 398.695 103.787 404.668 99.9707C410.676 96.1327 414.962 90.0877 416.35 81.3651L414.374 81.0508ZM383.106 103.376C373.02 103.376 365.947 100.856 361.375 95.9352C356.788 90.9993 354.538 83.4574 354.538 73.016L352.538 73.016C352.538 83.6945 354.832 91.8326 359.909 97.2967C365.001 102.776 372.712 105.376 383.106 105.376L383.106 103.376ZM354.538 73.016L354.538 62.136L352.538 62.136L352.538 73.016L354.538 73.016ZM354.538 62.136C354.538 53.0201 354.153 43.908 353.511 34.9287L351.517 35.0712C352.155 44.0119 352.538 53.0758 352.538 62.136L354.538 62.136ZM352.514 36L370.562 36L370.562 34L352.514 34L352.514 36ZM369.568 35.1074C370.077 39.813 370.459 45.6768 370.715 51.9367L372.713 51.8552C372.457 45.5711 372.071 39.6589 371.556 34.8925L369.568 35.1074ZM371.714 52.896L373.634 52.896L373.634 50.896L371.714 50.896L371.714 52.896ZM374.603 52.144C377.186 42.0584 385.899 34.208 397.826 34.208L397.826 32.208C384.921 32.208 375.458 40.7415 372.665 51.6479L374.603 52.144ZM388.866 46.928C382.416 46.928 374.416 51.5764 372.524 61.3051L374.488 61.6868C376.18 52.9835 383.284 48.928 388.866 48.928L388.866 46.928ZM372.506 61.5192L372.634 67.0232L374.634 66.9767L374.506 61.4727L372.506 61.5192ZM374.049 67.9099C376.112 66.9694 378.582 66.3709 381.199 65.8572C383.768 65.3528 386.533 64.9219 388.976 64.3232C391.425 63.7231 393.744 62.9145 395.459 61.5558C397.232 60.1509 398.314 58.193 398.314 55.48L396.314 55.48C396.314 57.5669 395.524 58.953 394.217 59.9881C392.852 61.0694 390.883 61.7968 388.5 62.3807C386.111 62.966 383.5 63.3672 380.813 63.8947C378.174 64.413 375.508 65.0465 373.219 66.0901L374.049 67.9099ZM398.314 55.48C398.314 52.8979 397.301 50.7313 395.571 49.2224C393.854 47.7247 391.495 46.928 388.866 46.928L388.866 48.928C391.101 48.928 392.966 49.6033 394.257 50.7295C395.535 51.8446 396.314 53.4541 396.314 55.48L398.314 55.48ZM327.728 35L328.681 34.6962L328.459 34L327.728 34L327.728 35ZM349.232 102.456L349.232 103.456L350.6 103.456L350.185 102.152L349.232 102.456ZM326.576 102.456L325.604 102.693L325.79 103.456L326.576 103.456L326.576 102.456ZM314.16 51.512L315.132 51.2752L314.946 50.512L314.16 50.512L314.16 51.512ZM312.624 51.512L312.624 50.512L311.844 50.512L311.654 51.2683L312.624 51.512ZM299.824 102.456L299.824 103.456L300.604 103.456L300.794 102.7L299.824 102.456ZM278.448 102.456L277.495 102.152L277.08 103.456L278.448 103.456L278.448 102.456ZM299.952 34.9999L299.952 33.9999L299.221 33.9999L298.999 34.6962L299.952 34.9999ZM326.775 35.3037L348.279 102.76L350.185 102.152L328.681 34.6962L326.775 35.3037ZM349.232 101.456L326.576 101.456L326.576 103.456L349.232 103.456L349.232 101.456ZM327.548 102.219L315.132 51.2752L313.188 51.7487L325.604 102.693L327.548 102.219ZM314.16 50.512L312.624 50.512L312.624 52.512L314.16 52.512L314.16 50.512ZM311.654 51.2683L298.854 102.212L300.794 102.7L313.594 51.7556L311.654 51.2683ZM299.824 101.456L278.448 101.456L278.448 103.456L299.824 103.456L299.824 101.456ZM279.401 102.76L300.905 35.3037L298.999 34.6962L277.495 102.152L279.401 102.76ZM299.952 35.9999L327.728 36L327.728 34L299.952 33.9999L299.952 35.9999ZM270.841 34.9999L271.841 34.9999L271.841 33.9999L270.841 33.9999L270.841 34.9999ZM270.841 102.584L270.841 103.584L271.841 103.584L271.841 102.584L270.841 102.584ZM250.233 102.584L249.233 102.584L249.233 103.584L250.233 103.584L250.233 102.584ZM250.233 34.9999L250.233 33.9999L249.233 33.9999L249.233 34.9999L250.233 34.9999ZM260.473 111.392C264.316 111.392 267.098 112.231 268.902 113.683C270.671 115.106 271.633 117.226 271.633 120.12L273.633 120.12C273.633 116.742 272.483 113.998 270.156 112.125C267.864 110.28 264.566 109.392 260.473 109.392L260.473 111.392ZM271.633 120.12C271.633 123.084 270.666 125.236 268.898 126.672C267.096 128.136 264.316 128.976 260.473 128.976L260.473 130.976C264.566 130.976 267.866 130.088 270.16 128.224C272.488 126.332 273.633 123.556 273.633 120.12L271.633 120.12ZM260.473 128.976C256.57 128.976 253.757 128.106 251.936 126.624C250.148 125.169 249.185 123.015 249.185 120.12L247.185 120.12C247.185 123.497 248.334 126.271 250.674 128.176C252.981 130.054 256.312 130.976 260.473 130.976L260.473 128.976ZM249.185 120.12C249.185 117.305 250.169 115.18 251.978 113.733C253.819 112.26 256.638 111.392 260.473 111.392L260.473 109.392C256.372 109.392 253.047 110.316 250.728 112.171C248.377 114.052 247.185 116.791 247.185 120.12L249.185 120.12ZM269.841 34.9999L269.841 102.584L271.841 102.584L271.841 34.9999L269.841 34.9999ZM270.841 101.584L250.233 101.584L250.233 103.584L270.841 103.584L270.841 101.584ZM251.233 102.584L251.233 34.9999L249.233 34.9999L249.233 102.584L251.233 102.584ZM250.233 35.9999L270.841 35.9999L270.841 33.9999L250.233 33.9999L250.233 35.9999ZM240.3 53.5599L240.591 54.5165L241.379 54.2766L241.295 53.4577L240.3 53.5599ZM223.916 58.5519L222.938 58.7601L223.165 59.8262L224.207 59.5085L223.916 58.5519ZM210.604 60.9839L210.386 61.9598L210.388 61.9603L210.604 60.9839ZM179.5 83.8959L179.251 82.9275L178.402 83.1462L178.507 84.0165L179.5 83.8959ZM196.396 79.5439L197.391 79.4403L197.27 78.2861L196.147 78.5755L196.396 79.5439ZM205.1 76.2159L205.309 75.2379L205.306 75.2373L205.1 76.2159ZM208.428 34.2079C217.348 34.2079 224.76 35.8556 230.083 39.1017C235.365 42.3227 238.635 47.1394 239.305 53.6622L241.295 53.4577C240.557 46.2845 236.915 40.9252 231.125 37.3942C225.376 33.8883 217.556 32.2079 208.428 32.2079L208.428 34.2079ZM240.009 52.6034L223.625 57.5954L224.207 59.5085L240.591 54.5165L240.009 52.6034ZM224.894 58.3438C224.202 55.0919 222.394 52.2427 219.422 50.2211C216.463 48.2082 212.412 47.0559 207.276 47.0559L207.276 49.0559C212.124 49.0559 215.753 50.1437 218.298 51.8748C220.83 53.5972 222.35 55.996 222.938 58.7601L224.894 58.3438ZM207.276 47.0559C204.063 47.0559 201.255 47.5439 199.213 48.6094C197.125 49.6992 195.78 51.4396 195.78 53.8159L197.78 53.8159C197.78 52.3523 198.547 51.2127 200.139 50.3825C201.777 49.5279 204.217 49.0559 207.276 49.0559L207.276 47.0559ZM195.78 53.8159C195.78 54.9485 196.1 55.9487 196.788 56.8172C197.457 57.6607 198.425 58.3182 199.618 58.8805C201.978 59.993 205.551 60.8784 210.386 61.9598L210.822 60.0081C205.929 58.9135 202.59 58.0708 200.47 57.0714C199.423 56.5777 198.759 56.0832 198.356 55.5746C197.972 55.0912 197.78 54.5394 197.78 53.8159L195.78 53.8159ZM210.388 61.9603C217.652 63.5675 224.655 65.236 229.851 68.3386C232.43 69.8781 234.525 71.75 235.979 74.1086C237.429 76.4612 238.276 79.3553 238.276 82.9999L240.276 82.9999C240.276 79.0286 239.347 75.7627 237.681 73.0593C236.019 70.3619 233.658 68.2817 230.877 66.6213C225.353 63.3239 218.02 61.6004 210.82 60.0076L210.388 61.9603ZM238.276 82.9999C238.276 89.1456 235.676 94.1911 230.875 97.7311C226.043 101.294 218.914 103.376 209.836 103.376L209.836 105.376C219.19 105.376 226.781 103.234 232.061 99.3408C237.373 95.4248 240.276 89.7823 240.276 82.9999L238.276 82.9999ZM209.836 103.376C201.833 103.376 194.869 101.704 189.734 98.4288C184.628 95.1729 181.287 90.3111 180.493 83.7753L178.507 84.0165C179.377 91.1768 183.076 96.5549 188.658 100.115C194.211 103.656 201.583 105.376 209.836 105.376L209.836 103.376ZM179.749 84.8643L196.645 80.5123L196.147 78.5755L179.251 82.9275L179.749 84.8643ZM195.401 79.6475C195.75 82.9931 197.331 85.7469 199.916 87.6458C202.482 89.5313 205.971 90.5279 210.092 90.5279L210.092 88.5279C206.277 88.5279 203.238 87.6046 201.1 86.0341C198.981 84.477 197.682 82.2388 197.391 79.4403L195.401 79.6475ZM210.092 90.5279C213.401 90.5279 216.093 89.9017 217.995 88.7716C219.919 87.6278 221.076 85.9279 221.076 83.8959L219.076 83.8959C219.076 85.064 218.441 86.18 216.973 87.0523C215.483 87.9382 213.183 88.5279 210.092 88.5279L210.092 90.5279ZM221.076 83.8959C221.076 82.6253 220.649 81.5295 219.841 80.5997C219.055 79.6959 217.939 78.983 216.601 78.377C213.94 77.1724 210.086 76.2571 205.309 75.238L204.891 77.1939C209.714 78.2228 213.348 79.0995 215.775 80.1989C216.981 80.7449 217.809 81.3119 218.331 81.9122C218.831 82.4864 219.076 83.1186 219.076 83.8959L221.076 83.8959ZM205.306 75.2373C198.872 73.8862 192.161 72.4082 187.047 69.4019C184.509 67.9099 182.403 66.0615 180.928 63.6985C179.458 61.3419 178.58 58.4173 178.58 54.7119L176.58 54.7119C176.58 58.7506 177.542 62.0499 179.232 64.7573C180.917 67.4584 183.291 69.514 186.033 71.126C191.479 74.3277 198.528 75.8577 204.894 77.1946L205.306 75.2373ZM178.58 54.7119C178.58 48.4323 181.153 43.3638 186.097 39.8295C191.084 36.2658 198.564 34.2079 208.428 34.2079L208.428 32.2079C198.324 32.2079 190.38 34.3101 184.935 38.2024C179.447 42.1241 176.58 47.8076 176.58 54.7119L178.58 54.7119Z" fill="#656565"/>
<path d="M7.552 205V120.52H28.16V187.592H61.824V205H7.552ZM101.537 206.792C77.985 206.792 66.209 193.352 66.209 172.488C66.209 151.752 77.985 135.624 100.129 135.624C122.273 135.624 133.537 151.112 131.105 175.048L86.177 175.56C87.201 186.952 92.961 191.816 101.537 191.816C110.241 191.816 113.057 186.696 113.697 181.192L132.001 184.136C130.721 196.168 122.401 206.792 101.537 206.792ZM100.385 151.496C93.089 151.496 88.353 156.36 86.689 164.552L112.417 164.296C111.905 155.592 107.041 151.496 100.385 151.496ZM152.036 205L135.908 137.416H157.54L165.732 188.36H167.524L177.38 137.416H201.188L211.172 188.36H213.22L221.284 137.416H242.276L226.02 205H198.116L189.668 155.976H187.876L179.684 205H152.036ZM260.652 129.608C252.716 129.608 248.492 126.152 248.492 119.88C248.492 113.48 252.716 110.024 260.652 110.024C268.716 110.024 272.94 113.608 272.94 119.88C272.94 126.024 268.588 129.608 260.652 129.608ZM250.284 205V137.416H270.892V205H250.284ZM312.697 206.792C294.649 206.792 282.233 200.136 280.825 186.44L297.209 181.448C298.489 187.464 303.865 191.944 313.849 191.944C320.121 191.944 324.345 190.024 324.345 186.184C324.345 182.472 320.249 181.192 310.521 179.016C296.057 175.816 281.849 172.232 281.849 157C281.849 144.072 292.857 135.624 311.289 135.624C327.545 135.624 339.961 142.408 341.625 156.104L324.729 160.456C324.089 154.312 318.969 150.472 311.033 150.472C304.633 150.472 301.049 152.904 301.049 156.104C301.049 160.2 306.425 161.736 316.025 163.784C328.825 166.472 343.545 169.8 343.545 185.288C343.545 198.472 332.665 206.792 312.697 206.792Z" fill="black"/>
</svg>
