<svg width="544" height="240" viewBox="0 0 544 240" fill="none" xmlns="http://www.w3.org/2000/svg">
<path d="M536.448 35L537.448 35L537.448 34L536.448 34L536.448 35ZM536.448 119.48L536.448 120.48L537.448 120.48L537.448 119.48L536.448 119.48ZM515.84 119.48L514.84 119.48L514.84 120.48L515.84 120.48L515.84 119.48ZM515.84 52.408L516.84 52.408L516.84 51.408L515.84 51.408L515.84 52.408ZM482.176 52.408L481.176 52.408L481.176 53.408L482.176 53.408L482.176 52.408ZM482.176 35L482.176 34L481.176 34L481.176 35L482.176 35ZM535.448 35L535.448 119.48L537.448 119.48L537.448 35L535.448 35ZM536.448 118.48L515.84 118.48L515.84 120.48L536.448 120.48L536.448 118.48ZM516.84 119.48L516.84 52.408L514.84 52.408L514.84 119.48L516.84 119.48ZM515.84 51.408L482.176 51.408L482.176 53.408L515.84 53.408L515.84 51.408ZM483.176 52.408L483.176 35L481.176 35L481.176 52.408L483.176 52.408ZM482.176 36L536.448 36L536.448 34L482.176 34L482.176 36ZM412.895 64.952L412.884 63.9521L411.99 63.9623L411.9 64.8509L412.895 64.952ZM457.823 64.44L457.834 65.44L458.916 65.4276L458.819 64.3505L457.823 64.44ZM430.303 58.808L430.144 59.7953L431.176 59.9612L431.296 58.9235L430.303 58.808ZM411.999 55.864L411.005 55.7582L410.904 56.7008L411.84 56.8513L411.999 55.864ZM457.311 75.448L458.291 75.6471L458.537 74.4358L457.301 74.4481L457.311 75.448ZM431.583 75.704L431.573 74.7041L430.523 74.7145L430.585 75.7627L431.583 75.704ZM442.463 34.208C454.05 34.208 462.596 37.5103 468.247 43.2383C473.901 48.9695 476.791 57.2636 476.791 67.512L478.791 67.512C478.791 56.8964 475.793 48.0386 469.671 41.8337C463.546 35.6258 454.428 32.208 442.463 32.208L442.463 34.208ZM476.791 67.512C476.791 77.6992 473.899 86.6647 468.378 93.067C462.874 99.45 454.681 103.376 443.871 103.376L443.871 105.376C455.205 105.376 463.972 101.238 469.892 94.3731C475.795 87.5274 478.791 78.0608 478.791 67.512L476.791 67.512ZM443.871 103.376C433.045 103.376 425.014 99.6015 419.96 93.0303C414.884 86.4324 412.69 76.8602 413.89 65.0531L411.9 64.8509C410.668 76.9799 412.89 87.1196 418.374 94.2497C423.88 101.407 432.553 105.376 443.871 105.376L443.871 103.376ZM412.906 65.952L457.834 65.44L457.812 63.4401L412.884 63.9521L412.906 65.952ZM458.819 64.3505C458.294 58.5115 456.542 54.1931 453.682 51.3329C450.809 48.4599 446.944 47.184 442.463 47.184L442.463 49.184C446.558 49.184 449.861 50.3402 452.268 52.7471C454.688 55.167 456.328 58.9765 456.827 64.5295L458.819 64.3505ZM442.463 47.184C437.904 47.184 434.737 48.5325 432.634 50.7428C430.556 52.9281 429.643 55.8257 429.31 58.6925L431.296 58.9235C431.603 56.2863 432.418 53.872 434.084 52.1212C435.725 50.3955 438.318 49.184 442.463 49.184L442.463 47.184ZM430.462 57.8207L412.158 54.8767L411.84 56.8513L430.144 59.7953L430.462 57.8207ZM412.993 55.9698C413.612 50.1512 415.923 44.7435 420.538 40.7829C425.157 36.8197 432.198 34.208 442.463 34.208L442.463 32.208C431.864 32.208 424.313 34.9084 419.236 39.2651C414.155 43.6245 411.666 49.5449 411.005 55.7582L412.993 55.9698ZM443.615 89.504C447.504 89.504 450.768 88.1998 453.272 85.765C455.76 83.3465 457.431 79.8785 458.291 75.6471L456.331 75.249C455.527 79.2096 453.998 82.2696 451.878 84.331C449.774 86.3763 447.022 87.504 443.615 87.504L443.615 89.504ZM457.301 74.4481L431.573 74.7041L431.593 76.704L457.321 76.448L457.301 74.4481ZM430.585 75.7627C430.851 80.2873 432.258 83.745 434.588 86.0751C436.924 88.4108 440.078 89.504 443.615 89.504L443.615 87.504C440.496 87.504 437.89 86.5493 436.002 84.6609C434.108 82.7671 432.827 79.8248 432.581 75.6453L430.585 75.7627ZM391.964 35L392.937 34.7679L392.753 34L391.964 34L391.964 35ZM408.092 102.584L408.092 103.584L409.359 103.584L409.065 102.352L408.092 102.584ZM386.46 102.584L385.473 102.743L385.608 103.584L386.46 103.584L386.46 102.584ZM378.268 51.64L379.255 51.4813L379.12 50.64L378.268 50.64L378.268 51.64ZM376.476 51.64L376.476 50.64L375.651 50.64L375.494 51.4501L376.476 51.64ZM366.62 102.584L366.62 103.584L367.445 103.584L367.602 102.774L366.62 102.584ZM342.812 102.584L341.831 102.776L341.989 103.584L342.812 103.584L342.812 102.584ZM332.828 51.64L333.809 51.4477L333.651 50.64L332.828 50.64L332.828 51.64ZM330.78 51.64L330.78 50.64L329.926 50.64L329.792 51.4837L330.78 51.64ZM322.716 102.584L322.716 103.584L323.57 103.584L323.704 102.74L322.716 102.584ZM301.724 102.584L300.752 102.35L300.455 103.584L301.724 103.584L301.724 102.584ZM317.98 35L317.98 34L317.192 34L317.008 34.7662L317.98 35ZM345.884 35L346.869 34.8302L346.726 34L345.884 34L345.884 35ZM354.332 84.024L353.347 84.1938L353.49 85.024L354.332 85.024L354.332 84.024ZM356.124 84.024L356.124 85.024L356.971 85.024L357.11 84.1888L356.124 84.024ZM364.316 35L364.316 34L363.469 34L363.33 34.8352L364.316 35ZM390.991 35.2321L407.119 102.816L409.065 102.352L392.937 34.7679L390.991 35.2321ZM408.092 101.584L386.46 101.584L386.46 103.584L408.092 103.584L408.092 101.584ZM387.447 102.425L379.255 51.4813L377.281 51.7988L385.473 102.743L387.447 102.425ZM378.268 50.64L376.476 50.64L376.476 52.64L378.268 52.64L378.268 50.64ZM375.494 51.4501L365.638 102.394L367.602 102.774L377.458 51.83L375.494 51.4501ZM366.62 101.584L342.812 101.584L342.812 103.584L366.62 103.584L366.62 101.584ZM343.793 102.392L333.809 51.4477L331.847 51.8323L341.831 102.776L343.793 102.392ZM332.828 50.64L330.78 50.64L330.78 52.64L332.828 52.64L332.828 50.64ZM329.792 51.4837L321.728 102.428L323.704 102.74L331.768 51.7964L329.792 51.4837ZM322.716 101.584L301.724 101.584L301.724 103.584L322.716 103.584L322.716 101.584ZM302.696 102.818L318.952 35.2339L317.008 34.7662L300.752 102.35L302.696 102.818ZM317.98 36L345.884 36L345.884 34L317.98 34L317.98 36ZM344.899 35.1698L353.347 84.1938L355.317 83.8542L346.869 34.8302L344.899 35.1698ZM354.332 85.024L356.124 85.024L356.124 83.024L354.332 83.024L354.332 85.024ZM357.11 84.1888L365.302 35.1648L363.33 34.8352L355.138 83.8592L357.11 84.1888ZM364.316 36L391.964 36L391.964 34L364.316 34L364.316 36ZM293.716 35L294.716 35L294.716 34L293.716 34L293.716 35ZM293.716 102.584L293.716 103.584L294.716 103.584L294.716 102.584L293.716 102.584ZM273.108 102.584L272.108 102.584L272.108 103.584L273.108 103.584L273.108 102.584ZM273.108 35L273.108 34L272.108 34L272.108 35L273.108 35ZM283.348 111.392C287.191 111.392 289.973 112.231 291.777 113.683C293.546 115.106 294.508 117.226 294.508 120.12L296.508 120.12C296.508 116.742 295.358 113.998 293.031 112.125C290.739 110.281 287.441 109.392 283.348 109.392L283.348 111.392ZM294.508 120.12C294.508 123.084 293.541 125.236 291.773 126.672C289.971 128.136 287.191 128.976 283.348 128.976L283.348 130.976C287.441 130.976 290.741 130.088 293.035 128.224C295.363 126.332 296.508 123.556 296.508 120.12L294.508 120.12ZM283.348 128.976C279.445 128.976 276.632 128.106 274.811 126.624C273.023 125.169 272.06 123.015 272.06 120.12L270.06 120.12C270.06 123.497 271.209 126.271 273.549 128.176C275.856 130.054 279.187 130.976 283.348 130.976L283.348 128.976ZM272.06 120.12C272.06 117.305 273.044 115.18 274.853 113.733C276.694 112.26 279.513 111.392 283.348 111.392L283.348 109.392C279.247 109.392 275.922 110.316 273.603 112.171C271.252 114.052 270.06 116.791 270.06 120.12L272.06 120.12ZM292.716 35L292.716 102.584L294.716 102.584L294.716 35L292.716 35ZM293.716 101.584L273.108 101.584L273.108 103.584L293.716 103.584L293.716 101.584ZM274.108 102.584L274.108 35L272.108 35L272.108 102.584L274.108 102.584ZM273.108 36L293.716 36L293.716 34L273.108 34L273.108 36ZM263.175 53.56L263.466 54.5166L264.254 54.2767L264.17 53.4577L263.175 53.56ZM246.791 58.552L245.813 58.7601L246.04 59.8263L247.082 59.5086L246.791 58.552ZM233.479 60.984L233.261 61.9599L233.263 61.9604L233.479 60.984ZM202.375 83.896L202.126 82.9276L201.277 83.1463L201.382 84.0166L202.375 83.896ZM219.271 79.544L220.266 79.4404L220.145 78.2861L219.022 78.5756L219.271 79.544ZM227.975 76.216L228.184 75.238L228.181 75.2374L227.975 76.216ZM231.303 34.208C240.223 34.208 247.635 35.8557 252.958 39.1018C258.24 42.3228 261.51 47.1395 262.18 53.6623L264.17 53.4577C263.432 46.2845 259.79 40.9252 254 37.3942C248.251 33.8883 240.431 32.208 231.303 32.208L231.303 34.208ZM262.884 52.6034L246.5 57.5954L247.082 59.5086L263.466 54.5166L262.884 52.6034ZM247.769 58.3439C247.077 55.0919 245.269 52.2427 242.297 50.2212C239.338 48.2083 235.287 47.056 230.151 47.056L230.151 49.056C234.999 49.056 238.628 50.1437 241.173 51.8748C243.705 53.5973 245.225 55.9961 245.813 58.7601L247.769 58.3439ZM230.151 47.056C226.938 47.056 224.13 47.544 222.088 48.6094C220 49.6992 218.655 51.4396 218.655 53.816L220.655 53.816C220.655 52.3524 221.422 51.2128 223.014 50.3826C224.652 49.528 227.092 49.056 230.151 49.056L230.151 47.056ZM218.655 53.816C218.655 54.9486 218.975 55.9487 219.663 56.8173C220.332 57.6608 221.3 58.3183 222.493 58.8805C224.853 59.9931 228.426 60.8785 233.261 61.9599L233.697 60.0081C228.804 58.9135 225.465 58.0709 223.345 57.0715C222.298 56.5777 221.634 56.0832 221.231 55.5747C220.847 55.0913 220.655 54.5394 220.655 53.816L218.655 53.816ZM233.263 61.9604C240.527 63.5675 247.53 65.236 252.726 68.3386C255.305 69.8782 257.4 71.75 258.854 74.1087C260.304 76.4612 261.151 79.3553 261.151 83L263.151 83C263.151 79.0287 262.222 75.7628 260.556 73.0593C258.894 70.362 256.533 68.2818 253.752 66.6214C248.228 63.324 240.895 61.6005 233.695 60.0076L233.263 61.9604ZM261.151 83C261.151 89.1456 258.551 94.1912 253.75 97.7311C248.918 101.294 241.789 103.376 232.711 103.376L232.711 105.376C242.065 105.376 249.656 103.234 254.936 99.3409C260.247 95.4248 263.151 89.7824 263.151 83L261.151 83ZM232.711 103.376C224.708 103.376 217.744 101.704 212.609 98.4289C207.503 95.173 204.162 90.3111 203.368 83.7754L201.382 84.0166C202.252 91.1769 205.951 96.555 211.533 100.115C217.086 103.656 224.458 105.376 232.711 105.376L232.711 103.376ZM202.624 84.8644L219.52 80.5124L219.022 78.5756L202.126 82.9276L202.624 84.8644ZM218.276 79.6476C218.625 82.9931 220.206 85.747 222.791 87.6459C225.357 89.5313 228.846 90.528 232.967 90.528L232.967 88.528C229.152 88.528 226.113 87.6047 223.975 86.0341C221.856 84.477 220.557 82.2389 220.266 79.4404L218.276 79.6476ZM232.967 90.528C236.276 90.528 238.968 89.9018 240.87 88.7716C242.794 87.6279 243.951 85.9279 243.951 83.896L241.951 83.896C241.951 85.0641 241.316 86.1801 239.848 87.0524C238.358 87.9382 236.058 88.528 232.967 88.528L232.967 90.528ZM243.951 83.896C243.951 82.6254 243.524 81.5296 242.716 80.5998C241.93 79.696 240.814 78.983 239.476 78.3771C236.815 77.1725 232.961 76.2571 228.184 75.238L227.766 77.194C232.589 78.2229 236.223 79.0996 238.65 80.199C239.856 80.745 240.684 81.312 241.206 81.9122C241.706 82.4864 241.951 83.1187 241.951 83.896L243.951 83.896ZM228.181 75.2374C221.747 73.8863 215.036 72.4083 209.922 69.4019C207.384 67.91 205.278 66.0616 203.803 63.6986C202.333 61.342 201.455 58.4174 201.455 54.712L199.455 54.712C199.455 58.7506 200.417 62.05 202.107 64.7574C203.792 67.4584 206.166 69.514 208.908 71.1261C214.354 74.3277 221.403 75.8577 227.769 77.1947L228.181 75.2374ZM201.455 54.712C201.455 48.4324 204.028 43.3638 208.972 39.8296C213.959 36.2659 221.439 34.208 231.303 34.208L231.303 32.208C221.199 32.208 213.255 34.3101 207.81 38.2024C202.322 42.1242 199.455 47.8076 199.455 54.712L201.455 54.712Z" fill="#656565"/>
<path d="M25.216 205V137.8H1.92V120.52H69.376V137.8H45.952V205H25.216ZM75.909 205V137.416H93.061L93.317 161.736H95.365C97.029 142.664 103.429 135.88 115.461 135.88C117.509 135.88 119.685 136.264 122.245 137.16L121.477 159.432C118.277 157.896 114.821 157.256 112.133 157.256C102.661 157.256 97.413 163.4 96.645 175.688V205H75.909ZM146.174 206.792C135.038 206.792 126.462 200.52 126.462 188.104C126.462 169.928 145.022 167.752 157.438 165.832C167.038 164.296 170.238 163.528 170.238 159.176C170.238 154.696 166.91 151.496 160.51 151.496C153.854 151.496 147.966 154.952 146.814 162.76L128.638 158.792C131.326 141.896 145.15 135.624 160.894 135.624C181.374 135.624 190.462 145.864 190.462 166.984V177.864C190.462 186.952 190.846 196.04 191.486 205H173.438C172.926 200.264 172.542 194.376 172.286 188.104H170.366C167.678 198.6 158.59 206.792 146.174 206.792ZM155.134 192.072C161.15 192.072 168.702 187.72 170.494 178.504L170.366 173C161.662 176.968 146.686 174.92 146.686 184.52C146.686 189.128 150.27 192.072 155.134 192.072ZM216.272 205L194.768 137.544H217.424L229.84 188.488H231.376L244.176 137.544H265.552L244.048 205H216.272ZM283.527 129.608C275.591 129.608 271.367 126.152 271.367 119.88C271.367 113.48 275.591 110.024 283.527 110.024C291.591 110.024 295.815 113.608 295.815 119.88C295.815 126.024 291.463 129.608 283.527 129.608ZM273.159 205V137.416H293.767V205H273.159ZM335.572 206.792C317.524 206.792 305.108 200.136 303.7 186.44L320.084 181.448C321.364 187.464 326.74 191.944 336.724 191.944C342.996 191.944 347.22 190.024 347.22 186.184C347.22 182.472 343.124 181.192 333.396 179.016C318.932 175.816 304.724 172.232 304.724 157C304.724 144.072 315.732 135.624 334.164 135.624C350.42 135.624 362.836 142.408 364.5 156.104L347.604 160.456C346.964 154.312 341.844 150.472 333.908 150.472C327.508 150.472 323.924 152.904 323.924 156.104C323.924 160.2 329.3 161.736 338.9 163.784C351.7 166.472 366.42 169.8 366.42 185.288C366.42 198.472 355.54 206.792 335.572 206.792Z" fill="black"/>
</svg>
